<svg viewBox="0 0 1200 380" width="100%" height="340" xmlns="http://www.w3.org/2000/svg">
    <style>
        text { font-family: -apple-system, BlinkMacSystemFont, "Segoe UI", Roboto, Helvetica, Arial, sans-serif; }
        .box-bg { fill: #e6f4ea; stroke: #a7cdb3; stroke-width: 1; }
        .title { font-weight: 700; font-size: 16px; fill: #1a202c; }
        .content { font-size: 13px; fill: #4a5568; }
    </style>

    <g>
        <rect class="box-bg" x="20" y="20" width="570" height="100" rx="6"/>
        <rect x="20" y="20" width="4" height="100" fill="#1f883d"/>
        <text class="title" x="40" y="50">ActiveRecord &amp; ActiveQuery Analysis</text>
        <text class="content" x="40" y="78">Type inference &#8226; generic support</text>
        <text class="content" x="40" y="98">Property resolution &#8226; relation methods</text>
    </g>

    <g>
        <rect class="box-bg" x="610" y="20" width="570" height="100" rx="6"/>
        <rect x="610" y="20" width="4" height="100" fill="#1f883d"/>
        <text class="title" x="630" y="50">Application Component Resolution</text>
        <text class="content" x="630" y="78">Auto type inference &#8226; behavior reflection</text>
        <text class="content" x="630" y="98">Custom configurations &#8226; user component</text>
    </g>

    <g>
        <rect class="box-bg" x="20" y="140" width="570" height="100" rx="6"/>
        <rect x="20" y="140" width="4" height="100" fill="#1f883d"/>
        <text class="title" x="40" y="170">Behavior Integration</text>
        <text class="content" x="40" y="198">ServiceMap configuration &#8226; hierarchical resolution</text>
        <text class="content" x="40" y="218">Property &amp; method types</text>
    </g>

    <g>
        <rect class="box-bg" x="610" y="140" width="570" height="100" rx="6"/>
        <rect x="610" y="140" width="4" height="100" fill="#1f883d"/>
        <text class="title" x="630" y="170">Dependency Injection Container</text>
        <text class="content" x="630" y="198">Service map integration &#8226; type-safe resolution</text>
        <text class="content" x="630" y="218">Closures &amp; singletons</text>
    </g>

    <g>
        <rect class="box-bg" x="20" y="260" width="570" height="100" rx="6"/>
        <rect x="20" y="260" width="4" height="100" fill="#1f883d"/>
        <text class="title" x="40" y="290">Framework Integration</text>
        <text class="content" x="40" y="318">Header collection types &#8226; stub files</text>
        <text class="content" x="40" y="338">Yii2 constants support</text>
    </g>

    <g>
        <rect class="box-bg" x="610" y="260" width="570" height="100" rx="6"/>
        <rect x="610" y="260" width="4" height="100" fill="#1f883d"/>
        <text class="title" x="630" y="290">Service Locator Resolution</text>
        <text class="content" x="630" y="318">Dynamic type inference &#8226; priority-based resolution</text>
        <text class="content" x="630" y="338">Fallback support</text>
    </g>
</svg>
